<?xml version="1.0" encoding="UTF-8" standalone="no"?><!DOCTYPE svg PUBLIC "-//W3C//DTD SVG 1.1//EN" "http://www.w3.org/Graphics/SVG/1.1/DTD/svg11.dtd"><svg width="100%" height="100%" viewBox="0 0 114 32" version="1.1" xmlns="http://www.w3.org/2000/svg" xmlns:xlink="http://www.w3.org/1999/xlink" xml:space="preserve" xmlns:serif="http://www.serif.com/" style="fill-rule:evenodd;clip-rule:evenodd;stroke-linecap:round;stroke-linejoin:round;stroke-miterlimit:1.41421;"><rect x="33.103" y="15.419" width="37.795" height="0.886" style="fill:#fff;"/><rect x="34.989" y="29.413" width="37.795" height="0.886" style="fill:#fff;"/><g><rect x="30.954" y="15.409" width="2.032" height="0.894" style="fill:#fff;fill-rule:nonzero;"/><path d="M45.632,15.409l0,0.894l-12.646,0l0,-0.894l4.701,0l0,-10.837l-4.119,0l0,-2.808l11.482,0l0,2.808l-4.118,0l0,10.837l4.7,0Z" style="fill:#fff;fill-rule:nonzero;"/><rect x="45.632" y="15.409" width="0.659" height="0.894" style="fill:#fff;fill-rule:nonzero;"/><path d="M48.08,15.409l0,-13.645l5.512,0c2.26,0 3.872,0.381 4.836,1.144c0.964,0.763 1.446,1.99 1.446,3.681c0,2.33 -0.922,3.835 -2.767,4.514l3.037,4.306l1.955,0l0,0.894l-5.304,0l-3.224,-4.638l-2.246,0l0,4.638l-5.262,0l0,-0.894l2.017,0Zm5.616,-6.552c1.11,0 1.865,-0.181 2.267,-0.541c0.403,-0.361 0.604,-0.933 0.604,-1.716c0,-0.784 -0.208,-1.321 -0.624,-1.612c-0.416,-0.291 -1.144,-0.437 -2.184,-0.437l-2.434,0l0,4.306l2.371,0Z" style="fill:#fff;fill-rule:nonzero;"/><rect x="61.413" y="15.409" width="0.055" height="0.894" style="fill:#fff;fill-rule:nonzero;"/><path d="M68.29,15.409l0,0.894l-6.822,0l0,-0.894l1.789,0l0,-13.645l3.245,0l0,13.645l1.788,0Z" style="fill:#fff;fill-rule:nonzero;"/><rect x="68.29" y="15.409" width="0.055" height="0.894" style="fill:#fff;fill-rule:nonzero;"/><path d="M85.963,15.409l0,0.894l-5.471,0l-1.352,-3.141l-6.094,0l-1.352,3.141l-5.47,0l0,-0.894l2.392,0l5.907,-13.645l3.141,0l5.886,13.645l2.413,0Zm-9.859,-9.319l-1.831,4.223l3.64,0l-1.809,-4.223Z" style="fill:#fff;fill-rule:nonzero;"/><rect x="83.841" y="15.409" width="0.055" height="0.894" style="fill:#fff;fill-rule:nonzero;"/><path d="M97.146,15.409l0,0.894l-13.479,0l0,-0.894l2.018,0l0,-13.645l3.245,0l0,11.648l6.198,0l0,1.997l2.018,0Z" style="fill:#fff;fill-rule:nonzero;"/><rect x="95.711" y="15.409" width="0.055" height="0.894" style="fill:#fff;fill-rule:nonzero;"/><path d="M110.325,15.409l0,0.894l-14.56,0l0,-0.894l2.621,0c-1.095,-0.763 -1.643,-1.824 -1.643,-3.183c0,-1.636 1.019,-3.037 3.058,-4.201c-0.888,-0.943 -1.332,-1.928 -1.332,-2.954c0,-1.026 0.403,-1.889 1.207,-2.59c0.804,-0.7 1.907,-1.05 3.307,-1.05c1.04,0 1.973,0.302 2.798,0.905c0.825,0.603 1.237,1.445 1.237,2.527c0,1.359 -0.991,2.621 -2.974,3.786c0.624,0.79 1.179,1.449 1.664,1.976c0.347,-0.555 0.596,-1.186 0.749,-1.893l2.35,1.539c-0.319,0.874 -0.707,1.685 -1.165,2.434l1.789,1.768l-0.998,0.936l1.892,0Zm-10.566,-3.245c0,0.43 0.18,0.787 0.541,1.071c0.36,0.284 0.828,0.426 1.404,0.426c0.575,0 1.244,-0.367 2.007,-1.102c-0.887,-0.943 -1.643,-1.782 -2.267,-2.517c-0.485,0.236 -0.888,0.538 -1.207,0.905c-0.318,0.368 -0.478,0.773 -0.478,1.217Zm3.037,-8.279c-0.305,0 -0.579,0.108 -0.822,0.323c-0.242,0.215 -0.364,0.506 -0.364,0.873c0,0.368 0.278,0.898 0.832,1.592c1.04,-0.555 1.56,-1.075 1.56,-1.56c0,-0.402 -0.125,-0.708 -0.374,-0.916c-0.25,-0.208 -0.527,-0.312 -0.832,-0.312Zm2.766,10.692c-0.471,0.388 -0.908,0.665 -1.31,0.832l2.121,0l-0.811,-0.832Z" style="fill:#fff;fill-rule:nonzero;"/><rect x="110.325" y="15.409" width="2.032" height="0.894" style="fill:#fff;fill-rule:nonzero;"/><rect x="30.954" y="29.409" width="2.032" height="0.894" style="fill:#fff;fill-rule:nonzero;"/><path d="M46.256,29.409l0,0.894l-13.27,0l0,-0.894l2.829,0c-0.763,-0.389 -1.456,-0.888 -2.08,-1.498l1.934,-2.371c1.567,1.373 3.016,2.059 4.347,2.059c0.597,0 1.065,-0.128 1.404,-0.385c0.34,-0.256 0.51,-0.603 0.51,-1.04c0,-0.437 -0.18,-0.783 -0.541,-1.04c-0.36,-0.256 -1.074,-0.516 -2.142,-0.78c-1.692,-0.402 -2.929,-0.925 -3.713,-1.57c-0.783,-0.645 -1.175,-1.657 -1.175,-3.037c0,-1.38 0.496,-2.444 1.487,-3.193c0.992,-0.749 2.229,-1.123 3.713,-1.123c0.971,0 1.941,0.166 2.912,0.499c0.971,0.333 1.816,0.805 2.537,1.415l-1.643,2.371c-1.262,-0.957 -2.565,-1.435 -3.91,-1.435c-0.541,0 -0.967,0.128 -1.279,0.384c-0.312,0.257 -0.468,0.597 -0.468,1.02c0,0.423 0.19,0.759 0.572,1.008c0.381,0.25 1.262,0.545 2.641,0.884c1.38,0.34 2.451,0.85 3.214,1.529c0.763,0.68 1.144,1.623 1.144,2.829c0,1.498 -0.562,2.656 -1.685,3.474l2.662,0Z" style="fill:#fff;fill-rule:nonzero;"/><rect x="46.256" y="29.409" width="0.055" height="0.894" style="fill:#fff;fill-rule:nonzero;"/><path d="M60.393,29.409l0,0.894l-14.31,0l0,-0.894l2.017,0l0,-13.645l5.138,0c2.232,0 3.858,0.433 4.877,1.3c1.02,0.867 1.529,2.198 1.529,3.993c0,1.796 -0.523,3.11 -1.57,3.942c-1.047,0.832 -2.645,1.248 -4.795,1.248l-1.934,0l0,3.162l9.048,0Zm-6.864,-5.97c1.082,0 1.817,-0.218 2.205,-0.655c0.388,-0.437 0.582,-1.075 0.582,-1.914c0,-0.839 -0.253,-1.435 -0.759,-1.789c-0.506,-0.353 -1.293,-0.53 -2.361,-0.53l-1.851,0l0,4.888l2.184,0Z" style="fill:#fff;fill-rule:nonzero;"/><rect x="60.393" y="29.409" width="1.098" height="0.894" style="fill:#fff;fill-rule:nonzero;"/><path d="M68.314,29.409l0,0.894l-6.823,0l0,-0.894l1.789,0l0,-13.645l3.245,0l0,13.645l1.789,0Z" style="fill:#fff;fill-rule:nonzero;"/><rect x="68.314" y="29.409" width="0.055" height="0.894" style="fill:#fff;fill-rule:nonzero;"/><path d="M70.157,29.409l0,-13.645l5.512,0c2.261,0 3.873,0.381 4.836,1.144c0.964,0.763 1.446,1.99 1.446,3.681c0,2.33 -0.922,3.835 -2.766,4.514l3.036,4.306l1.956,0l0,0.894l-5.304,0l-3.224,-4.638l-2.247,0l0,4.638l-5.262,0l0,-0.894l2.017,0Zm5.616,-6.552c1.11,0 1.865,-0.181 2.268,-0.541c0.402,-0.361 0.603,-0.933 0.603,-1.716c0,-0.784 -0.208,-1.321 -0.624,-1.612c-0.416,-0.291 -1.144,-0.437 -2.184,-0.437l-2.434,0l0,4.306l2.371,0Z" style="fill:#fff;fill-rule:nonzero;"/><rect x="83.49" y="29.409" width="0.055" height="0.894" style="fill:#fff;fill-rule:nonzero;"/><path d="M101.163,29.409l0,0.894l-5.471,0l-1.352,-3.141l-6.094,0l-1.352,3.141l-5.471,0l0,-0.894l2.392,0l5.908,-13.645l3.14,0l5.887,13.645l2.413,0Zm-9.86,-9.319l-1.83,4.223l3.64,0l-1.81,-4.223Z" style="fill:#fff;fill-rule:nonzero;"/><rect x="99.041" y="29.409" width="0.055" height="0.894" style="fill:#fff;fill-rule:nonzero;"/><path d="M112.346,29.409l0,0.894l-13.479,0l0,-0.894l2.018,0l0,-13.645l3.245,0l0,11.648l6.198,0l0,1.997l2.018,0Z" style="fill:#fff;fill-rule:nonzero;"/></g><g><circle cx="16.025" cy="15.742" r="15.307" style="fill:#fff;"/><g id="レイヤ1"><circle cx="16.007" cy="15.72" r="13.963" style="fill:#fff;"/><path d="M16.007,1.358c7.932,0 14.362,6.43 14.362,14.362c0,7.932 -6.43,14.362 -14.362,14.362c-7.932,0 -14.362,-6.43 -14.362,-14.362c0,-7.932 6.43,-14.362 14.362,-14.362l0,0Zm0,1.297c7.216,0 13.066,5.849 13.066,13.065c0,7.216 -5.85,13.066 -13.066,13.066c-7.216,0 -13.066,-5.85 -13.066,-13.066c0,-7.216 5.85,-13.065 13.066,-13.065l0,0Z"/><g><circle cx="16.003" cy="15.72" r="10.722"/><path d="M16.003,3.839l-0.017,0c-2.95,0.01 -5.339,2.665 -5.339,5.937c0,3.279 2.399,5.937 5.356,5.937l0,0.022c2.959,0 5.356,2.658 5.356,5.937c0,3.279 -2.397,5.937 -5.356,5.937" style="fill:none;stroke:#fff;stroke-width:2.39px;"/><path d="M26.198,9.838l-20.382,11.773l20.382,-11.773" style="fill:none;stroke:#fff;stroke-width:2.39px;"/><path d="M22.703,6.167l-10.687,6.173l10.687,-6.173" style="stroke:#fff;stroke-width:2.39px;"/></g></g></g><g><circle cx="16.025" cy="15.742" r="7.559" style="fill:#fff;"/><path d="M16.025,8.655l6.137,3.543l0,7.087l-6.137,3.543l-6.137,-3.543l0,-7.087l6.137,-3.543Z" style="fill:#fff;"/><path d="M22.162,12.198l0,7.087l-6.137,3.543l-6.137,-3.543l0,-7.087l6.137,-3.543l6.137,3.543Zm-11.093,0.682l0,5.723l4.956,2.861l4.956,-2.861l0,-5.723l-4.956,-2.861l-4.956,2.861Z"/><path d="M20.628,13.084l0,5.315l-4.603,2.658l-4.603,-2.658l0,-5.315l4.603,-2.657l4.603,2.657Zm-8.497,0.409l0,4.497l3.894,2.248l3.894,-2.248l0,-4.497l-3.894,-2.248l-3.894,2.248Z" style="fill-opacity:0.9;"/><g><g><g><path d="M19.397,15.23l-3.883,3.884l0.501,0.501l3.883,-3.884l-0.501,-0.501Z" style="fill:#fff;"/><path d="M19.898,15.731l-3.883,3.884l-0.501,-0.501l3.883,-3.884l0.501,0.501Z"/><path d="M17.435,17.151l-1.942,1.942l0.543,0.543l1.941,-1.942l-0.542,-0.543Z" style="fill:#fff;"/><path d="M16.689,17.116l0,0.557l1.267,0l0,-0.557l-1.267,0Z"/><path d="M17.632,15.909l-1.941,1.942l0.543,0.543l1.941,-1.942l-0.543,-0.543Z" style="fill:#fff;"/><path d="M12.131,15.731l3.884,3.884l0.501,-0.501l-3.884,-3.884l-0.501,0.501Z"/><path d="M15.514,12.349l3.883,3.883l0.501,-0.501l-3.883,-3.883l-0.501,0.501Z"/><path d="M16.015,11.848l-3.884,3.883l0.501,0.501l3.884,-3.883l-0.501,-0.501Z"/><path d="M16.371,18.158l0,1.166l0.29,0l0,-1.166l-0.29,0Z" style="fill:#fff;"/></g><path d="M15.661,12.377l0,6.708l0.708,0l0,-6.708l-0.708,0Z"/><rect x="12.661" y="15.377" width="3.469" height="0.708"/><rect x="16.007" y="14.522" width="2.615" height="0.708"/><rect x="16.009" y="16.236" width="2.545" height="0.708"/><path d="M16.015,14.733l-0.999,0.998l0.999,0.999l0.998,-0.999l-0.998,-0.998Z" style="fill:#fff;stroke:#000;stroke-width:0.71px;stroke-linecap:square;stroke-linejoin:miter;stroke-miterlimit:1.5;"/></g></g></g></svg>